<svg xmlns="http://www.w3.org/2000/svg" width="24" height="24" viewBox="0 0 24 24">
    <g fill="none" fill-rule="evenodd">
        <path d="M0 0H24V24H0z"/>
        <g>
            <path stroke="#2099BB" stroke-linecap="round" stroke-linejoin="round" d="M2.159 12.157c-.227-.728-.35-1.499-.35-2.297V8.29c0-4.312 3.572-7.84 7.936-7.84h.51c4.364 0 7.936 3.528 7.936 7.84v1.57c0 4.313-3.572 7.84-7.936 7.84h-.51" transform="translate(2 3)"/>
            <path fill="#2099BB" stroke="#2099BB" stroke-width=".3" d="M2.019 14.092H1.6c-.677 0-1.23-.56-1.23-1.245v-3.56c0-.685.553-1.246 1.23-1.246h.419c.676 0 1.23.56 1.23 1.245v3.561c0 .685-.554 1.245-1.23 1.245M18.4 14.092h-.419c-.677 0-1.23-.56-1.23-1.245v-3.56c0-.685.553-1.246 1.23-1.246h.419c.676 0 1.23.56 1.23 1.245v3.561c0 .685-.554 1.245-1.23 1.245" transform="translate(2 3)"/>
            <path fill="#2099BB" d="M7.456 8.562h-.033c-.228 0-.414-.188-.414-.419v-.957c0-.231.186-.42.414-.42h.033c.227 0 .413.189.413.42v.957c0 .23-.186.419-.413.419M12.577 8.562h-.033c-.227 0-.413-.188-.413-.419v-.957c0-.231.186-.42.413-.42h.033c.228 0 .414.189.414.42v.957c0 .23-.186.419-.414.419" transform="translate(2 3)"/>
            <path stroke="#2099BB" stroke-linecap="round" stroke-linejoin="round" d="M12.556 10.551c0 1.298-1.15 2.362-2.558 2.362-1.407 0-2.559-1.064-2.559-2.362" transform="translate(2 3)"/>
        </g>
    </g>
</svg>
